PathFileType  4	(X/Y/Z) C:\Users\antoi\Documents\MyRepositories\mobilecap\ResultsAnalysis
DataRate	CameraRate	NumFrames	NumMarkers	Units	OrigDataRate	OrigDataStartFrame	OrigNumFrames
100.0	100.0	5	51	mm	100.0	1	135
Frame#	Time	r_knee			r_shank_antsup			r_ankle			r_calc			r_5meta			r_toe			L_knee			L_shank_antsup			L_ankle			L_calc			L_5meta			L_toe			r_sh2			r_sh3			r_sh4			L_sh2			L_sh3			r_thigh1			r_thigh2			r_thigh3			r_thigh4			r_thigh5			L_thigh1			L_thigh2			L_thigh3			L_thigh4			r.ASIS			r.PSIS			L.ASIS			L.PSIS			C7			R_Shoulder			L_Shoulder			R_Sternum			L_Sternum			R_humerus			R_elbow_med			R_elbow_lat			R_forearm			R_wrist_radius			R_wrist_ulna			L_humerus			L_elbow_med			L_elbow_lat			L_forearm			L_wrist_radius			L_wrist_ulna			R_HJC			L_HJC			R_HJC_reg			L_HJC_reg			
		X1	Y1	Z1	X2	Y2	Z2	X3	Y3	Z3	X4	Y4	Z4	X5	Y5	Z5	X6	Y6	Z6	X7	Y7	Z7	X8	Y8	Z8	X9	Y9	Z9	X10	Y10	Z10	X11	Y11	Z11	X12	Y12	Z12	X13	Y13	Z13	X14	Y14	Z14	X15	Y15	Z15	X16	Y16	Z16	X17	Y17	Z17	X18	Y18	Z18	X19	Y19	Z19	X20	Y20	Z20	X21	Y21	Z21	X22	Y22	Z22	X23	Y23	Z23	X24	Y24	Z24	X25	Y25	Z25	X26	Y26	Z26	X27	Y27	Z27	X28	Y28	Z28	X29	Y29	Z29	X30	Y30	Z30	X31	Y31	Z31	X32	Y32	Z32	X33	Y33	Z33	X34	Y34	Z34	X35	Y35	Z35	X36	Y36	Z36	X37	Y37	Z37	X38	Y38	Z38	X39	Y39	Z39	X40	Y40	Z40	X41	Y41	Z41	X42	Y42	Z42	X43	Y43	Z43	X44	Y44	Z44	X45	Y45	Z45	X46	Y46	Z46	X47	Y47	Z47	X48	Y48	Z48	X49	Y49	Z49	X50	Y50	Z50	X51	Y51	Z51	

1	0.00000000	80.16074	485.64761	-49.50383	141.33550	437.92173	-64.07666	184.16311	98.08033	-97.27878	135.88453	57.13107	-146.62251	296.51864	66.15803	-58.30916	342.33680	110.51303	-104.13782	-217.54116	480.40600	-292.67587	-228.34616	377.85707	-294.21633	-416.86087	129.40366	-242.17810	-490.44133	108.50697	-189.98111	-338.97062	40.51187	-287.67145	-286.05116	56.13975	-236.24232	152.04866	321.86521	-52.34047	60.18582	423.01041	-45.26337	76.70339	312.35337	-53.70077	-304.21557	426.01875	-294.10569	-359.51142	316.66339	-289.21379	18.25615	798.05816	-5.55040	56.87417	691.57466	-15.09322	9.87189	650.21968	9.80578	-88.32951	757.23768	10.28176	-48.15109	648.82737	-5.61521	-118.76973	727.11694	-358.31151	-142.38640	596.62760	-325.69262	-222.54368	752.51403	-313.27398	-242.48337	616.42804	-285.89615	-1.26719	933.68019	-51.02601	-193.37960	980.30197	-112.28398	-12.68116	916.27747	-302.19321	-205.58708	987.17341	-212.35431	-206.75984	1380.38579	-197.79479	-118.68988	1357.69210	-11.25866	-111.92856	1350.61478	-369.41463	-66.48324	1360.51480	-166.27686	-59.43916	1360.34842	-209.70253	-126.00694	1223.81698	55.84858	-179.35124	1011.32651	10.42733	-178.25884	1030.97815	79.96388	-109.94775	915.34357	122.87929	-73.78367	785.24457	148.59435	-105.48397	779.33430	160.24046	-55.67820	1250.90091	-427.23347	15.04186	1020.94079	-386.04318	23.50726	1056.17491	-457.25296	138.36340	1047.85825	-446.32638	286.70442	993.61055	-442.66331	274.93822	972.38849	-467.26054	-83.43884	857.61888	-65.08052	-99.28201	852.03967	-270.86714	-71.80892	847.22475	-82.68876	-91.90430	858.53635	-247.42012	
2	0.01000000	92.88135	486.95112	-48.07187	152.14006	437.15166	-62.92890	187.41425	96.98223	-97.09900	137.26731	59.28407	-147.00098	298.01277	61.92946	-57.56171	345.60741	104.82862	-102.95527	-203.22609	479.91478	-291.99433	-216.59837	377.75554	-294.12770	-411.99148	134.62834	-243.01553	-485.94425	116.83740	-190.76824	-337.85190	41.30131	-287.54207	-284.28556	55.55799	-236.82644	160.50230	320.82010	-51.46088	70.95933	423.81421	-43.83974	85.02677	312.84495	-52.58970	-291.23519	428.14354	-293.65291	-349.44861	320.34490	-288.81378	32.62025	800.40983	-5.27590	71.00246	693.62294	-14.76265	24.30483	652.71160	11.32783	-73.92527	759.94604	12.19167	-33.96430	651.24436	-3.13463	-105.73302	726.83739	-357.38819	-128.53749	596.11746	-325.03782	-209.04834	751.86561	-311.31117	-228.18241	615.43173	-284.43318	12.66325	936.40231	-50.92930	-179.99543	981.63684	-112.06710	0.35156	916.04834	-301.72863	-192.29749	987.31981	-212.12537	-193.98502	1380.73784	-196.41475	-105.41680	1357.64507	-10.16857	-99.49469	1351.47980	-368.27916	-53.50935	1361.11492	-165.22229	-46.95375	1361.05583	-208.65418	-112.23920	1223.57474	56.74000	-164.98645	1011.08757	11.04228	-164.06994	1030.72595	80.70035	-95.63117	915.04929	123.48721	-59.53398	785.03372	149.18618	-91.36463	779.05036	160.86254	-44.21749	1251.28254	-426.23273	25.33143	1020.80118	-384.63469	33.48079	1055.84888	-456.08195	148.29518	1047.73288	-444.75404	296.64053	993.89473	-440.71298	284.98279	972.64283	-465.36054	-69.34892	859.91691	-63.79461	-85.84813	851.88718	-269.41728	-57.94662	849.32219	-81.50494	-78.20521	858.67882	-246.27561	
3	0.02000000	105.49830	488.16308	-46.72111	162.84495	436.36494	-61.94090	190.56422	95.94194	-96.97307	138.72575	61.25569	-147.42677	299.42623	57.91426	-56.87100	348.76708	99.31078	-101.87323	-188.39073	479.37721	-291.53067	-204.38799	377.66622	-294.23532	-406.69298	140.05128	-243.96013	-480.95471	125.58161	-191.62254	-336.59396	42.23813	-287.45541	-282.40302	54.99149	-237.40513	169.00987	319.80506	-50.65050	81.71142	424.58189	-42.37230	93.43667	313.30062	-51.40689	-277.70024	430.28046	-293.31698	-338.90271	324.12979	-288.58033	46.89276	802.66008	-4.89882	85.03738	695.58391	-14.42942	38.66454	655.08997	12.81240	-59.56391	762.53198	14.12344	-19.83893	653.55436	-0.68677	-92.38985	726.61537	-356.44985	-114.24917	595.62981	-324.47005	-195.31429	751.12031	-309.41654	-213.49693	614.33246	-283.08101	26.61757	939.11294	-50.78141	-166.56595	982.96826	-111.75854	13.42525	915.95183	-301.20503	-178.98676	987.51532	-211.79202	-181.22416	1381.15944	-195.00537	-92.06595	1357.67544	-9.07180	-87.11396	1352.42043	-367.12679	-40.54419	1361.76088	-164.17624	-34.43121	1361.80981	-207.61526	-98.36665	1223.41534	57.63031	-150.55136	1010.93398	11.67854	-149.73866	1030.54080	81.44522	-81.15081	914.84243	124.06022	-45.06675	784.90870	149.70430	-77.00381	778.84544	161.42113	-32.81045	1251.73514	-425.24365	35.37587	1020.68774	-383.23332	43.24730	1055.53988	-454.92747	158.00973	1047.51516	-443.20611	306.33049	993.93591	-438.77315	294.76123	972.67188	-463.47113	-55.21049	862.20171	-62.49118	-72.36594	851.83711	-267.94887	-44.01838	851.42965	-80.29804	-64.47967	858.91755	-245.08396	
4	0.03000000	117.90553	489.21335	-45.51988	173.39270	435.55481	-61.25162	193.52440	95.01811	-96.95595	140.27554	62.91258	-147.92105	300.70716	54.31267	-56.30455	351.71488	94.12445	-101.01591	-172.61123	478.75287	-291.47939	-191.32554	377.59251	-294.71639	-400.59277	145.82668	-245.11471	-475.01696	135.08166	-192.61236	-335.09165	43.44964	-287.43945	-280.30990	54.46128	-237.98165	177.60297	318.84467	-49.98595	92.44127	425.29612	-40.84982	101.98589	313.70880	-50.12860	-263.15046	432.43154	-293.21814	-327.46214	328.09607	-288.65966	61.00496	804.72683	-4.34377	98.89815	697.38179	-14.07019	52.86846	657.26206	14.22826	-45.28221	764.90855	16.07611	-5.83849	655.68013	1.68760	-78.49311	726.49853	-355.49348	-99.16858	595.18201	-324.07690	-181.13879	750.18695	-307.64671	-198.10654	613.03831	-281.94278	40.59929	941.77860	-50.53407	-153.06520	984.29049	-111.27309	26.56898	916.09896	-300.57332	-165.64565	987.79642	-211.26190	-168.49357	1381.70007	-193.54082	-78.57557	1357.84559	-7.96401	-74.84100	1353.48453	-365.94546	-27.59668	1362.48723	-163.14904	-21.85455	1362.64530	-206.59631	-84.29307	1223.40912	58.51933	-135.98393	1010.93339	12.35507	-135.15558	1030.47806	82.20886	-66.36699	914.79202	124.56858	-30.20046	784.93558	150.08806	-62.19947	778.78339	161.86288	-21.50658	1252.30713	-424.27232	44.97477	1020.61885	-381.85254	52.64191	1055.25879	-453.80749	167.33728	1047.12522	-441.70737	315.57579	993.53158	-436.85957	304.05685	972.28598	-461.60690	-41.00021	864.44371	-61.15748	-58.80787	851.97489	-266.45132	-29.99243	853.55356	-79.04544	-50.72268	859.32826	-243.80459	
5	0.04000000	130.00007	490.06854	-44.51240	183.77315	434.73065	-60.95126	196.22407	94.26508	-97.09543	141.85087	64.19376	-148.46756	301.84067	51.28887	-55.92988	354.36460	89.42375	-100.51526	-155.63254	478.01194	-291.98446	-177.15214	377.52756	-295.70630	-393.41303	152.03448	-246.56883	-467.74324	145.54845	-193.80673	-333.28473	45.03614	-287.50200	-277.93900	54.00787	-238.57613	186.26157	317.95569	-49.54344	103.15441	425.96765	-39.31451	110.65736	314.09444	-48.80224	-247.29094	434.58289	-293.46886	-314.84153	332.27771	-289.15692	74.91338	806.55940	-3.57830	112.51619	698.96173	-13.63654	66.81561	659.16996	15.55539	-31.11958	767.04200	18.01677	7.96084	657.58962	3.93726	-63.90756	726.51582	-354.53696	-83.09634	594.78337	-323.94139	-166.39464	748.98963	-306.03950	-181.81467	611.47979	-281.10697	54.57338	944.33622	-50.14475	-139.50716	985.59366	-110.54388	39.78333	916.56213	-299.80053	-152.29267	988.17810	-210.46933	-155.81712	1382.37561	-192.00068	-64.91982	1358.19228	-6.84502	-62.73749	1354.67618	-364.73154	-14.68438	1363.30962	-162.15323	-9.24269	1363.57742	-205.60927	-69.95059	1223.60284	59.40803	-121.24612	1011.12369	13.08573	-120.26935	1030.57220	83.00394	-51.18836	914.93693	124.99128	-14.81943	785.14936	150.29744	-46.82232	778.90243	162.15168	-10.35678	1253.00933	-423.31787	53.99626	1020.59843	-380.51328	61.56208	1055.00585	-452.74007	176.17728	1046.50375	-440.28249	324.24937	992.54532	-434.99672	312.72692	971.35434	-459.78986	-26.74312	866.59157	-59.78901	-45.18622	852.35513	-264.92667	-15.89741	855.69364	-77.72559	-36.96900	859.95153	-242.40817	
